<?xml version="1.0" encoding="UTF-8"?> <!-- Generator: Adobe Illustrator 24.3.0, SVG Export Plug-In . SVG Version: 6.00 Build 0) --> <svg xmlns="http://www.w3.org/2000/svg" xmlns:xlink="http://www.w3.org/1999/xlink" version="1.1" id="Layer_1" x="0px" y="0px" viewBox="0 0 323.918 181.242" style="enable-background:new 0 0 323.918 181.242;" xml:space="preserve"> <style type="text/css"> .st0{fill:#FFFFFF;} .st1{opacity:0.06;fill:#073B4C;enable-background:new ;} .st2{opacity:0.06;fill:#EF476F;enable-background:new ;} </style> <path class="st0" d="M315.311,181.242H8.607c-4.734,0-8.607-3.873-8.607-8.607V8.607C0,3.873,3.873,0,8.607,0h306.704 c4.734,0,8.607,3.873,8.607,8.607v164.028C323.918,177.369,320.045,181.242,315.311,181.242z"></path> <g> <ellipse class="st1" cx="297.24" cy="113.054" rx="7.516" ry="7.495"></ellipse> <ellipse class="st1" cx="267.178" cy="113.054" rx="7.516" ry="7.495"></ellipse> <ellipse class="st1" cx="237.115" cy="113.054" rx="7.516" ry="7.495"></ellipse> <ellipse class="st1" cx="207.053" cy="113.054" rx="7.516" ry="7.495"></ellipse> <ellipse class="st1" cx="176.99" cy="113.054" rx="7.516" ry="7.495"></ellipse> <ellipse class="st1" cx="146.928" cy="113.054" rx="7.516" ry="7.495"></ellipse> <ellipse class="st1" cx="116.865" cy="113.054" rx="7.516" ry="7.495"></ellipse> <ellipse class="st1" cx="86.803" cy="113.054" rx="7.516" ry="7.495"></ellipse> <ellipse class="st1" cx="56.74" cy="113.054" rx="7.516" ry="7.495"></ellipse> <ellipse class="st1" cx="26.678" cy="113.054" rx="7.516" ry="7.495"></ellipse> <ellipse class="st1" cx="297.24" cy="83.075" rx="7.516" ry="7.495"></ellipse> <ellipse class="st1" cx="267.178" cy="83.075" rx="7.516" ry="7.495"></ellipse> <ellipse class="st1" cx="237.115" cy="83.075" rx="7.516" ry="7.495"></ellipse> <ellipse class="st1" cx="207.053" cy="83.075" rx="7.516" ry="7.495"></ellipse> <ellipse class="st1" cx="176.99" cy="83.075" rx="7.516" ry="7.495"></ellipse> <ellipse class="st1" cx="146.928" cy="83.075" rx="7.516" ry="7.495"></ellipse> <ellipse class="st1" cx="116.865" cy="83.075" rx="7.516" ry="7.495"></ellipse> <ellipse class="st1" cx="86.803" cy="83.075" rx="7.516" ry="7.495"></ellipse> <ellipse class="st1" cx="56.74" cy="83.075" rx="7.516" ry="7.495"></ellipse> <ellipse class="st1" cx="26.678" cy="83.075" rx="7.516" ry="7.495"></ellipse> <ellipse class="st1" cx="297.24" cy="53.095" rx="7.516" ry="7.495"></ellipse> <ellipse class="st1" cx="267.178" cy="53.095" rx="7.516" ry="7.495"></ellipse> <ellipse class="st1" cx="237.115" cy="53.095" rx="7.516" ry="7.495"></ellipse> <ellipse class="st1" cx="207.053" cy="53.095" rx="7.516" ry="7.495"></ellipse> <ellipse class="st1" cx="176.99" cy="53.095" rx="7.516" ry="7.495"></ellipse> <ellipse class="st1" cx="146.928" cy="53.095" rx="7.516" ry="7.495"></ellipse> <ellipse class="st1" cx="116.865" cy="53.095" rx="7.516" ry="7.495"></ellipse> <ellipse class="st1" cx="86.803" cy="53.095" rx="7.516" ry="7.495"></ellipse> <ellipse class="st1" cx="56.74" cy="53.095" rx="7.516" ry="7.495"></ellipse> <ellipse class="st1" cx="26.678" cy="53.095" rx="7.516" ry="7.495"></ellipse> <ellipse class="st1" cx="297.24" cy="23.116" rx="7.516" ry="7.495"></ellipse> <ellipse class="st1" cx="267.178" cy="23.116" rx="7.516" ry="7.495"></ellipse> <ellipse class="st1" cx="237.115" cy="23.116" rx="7.516" ry="7.495"></ellipse> <ellipse class="st1" cx="207.053" cy="23.116" rx="7.516" ry="7.495"></ellipse> <ellipse class="st1" cx="176.99" cy="23.116" rx="7.516" ry="7.495"></ellipse> <ellipse class="st1" cx="146.928" cy="23.116" rx="7.516" ry="7.495"></ellipse> <ellipse class="st1" cx="116.865" cy="23.116" rx="7.516" ry="7.495"></ellipse> <ellipse class="st1" cx="86.803" cy="23.116" rx="7.516" ry="7.495"></ellipse> <ellipse class="st1" cx="56.74" cy="23.116" rx="7.516" ry="7.495"></ellipse> <ellipse class="st1" cx="26.678" cy="23.116" rx="7.516" ry="7.495"></ellipse> <path class="st2" d="M154.34,113.054c0-28.985,23.647-52.567,52.713-52.567s52.713,23.582,52.713,52.567 s-23.647,52.567-52.713,52.567S154.34,142.039,154.34,113.054z M246.972,113.054c0-21.951-17.908-39.809-39.92-39.809 s-39.92,17.858-39.92,39.809s17.908,39.809,39.92,39.809S246.972,135.005,246.972,113.054z"></path> </g> </svg> 